<?xml version="1.0" encoding="UTF-8"?>
<svg xmlns="http://www.w3.org/2000/svg" width="512" height="512" viewBox="0 0 512 512">
  <path d="M 302.00 431.50 L 61.00 431.50 L 56.50 428.00 L 41.50 368.00 L 13.00 367.50 L 7.50 362.00 L 7.50 285.00 L 9.50 281.00 L 13.00 279.50 L 63.00 285.50 L 71.50 285.00 L 71.50 149.00 L 75.00 144.50 L 81.00 143.50 L 85.00 145.50 L 159.00 219.50 L 160.50 107.00 L 166.00 103.50 L 173.00 105.50 L 247.00 179.50 L 247.50 85.00 L 250.00 81.50 L 254.00 79.50 L 260.00 80.50 L 415.50 237.00 L 415.50 243.00 L 410.00 247.50 L 398.00 249.50 L 368.00 259.50 L 329.00 278.50 L 297.00 301.50 L 286.50 311.00 L 275.00 324.50 L 308.00 320.50 L 342.00 290.50 L 351.00 290.50 L 384.00 285.50 L 492.00 263.50 L 498.00 263.50 L 503.50 268.00 L 503.50 274.00 L 499.00 278.50 L 440.00 289.50 L 384.50 375.00 L 381.50 382.00 L 370.50 397.00 L 361.00 406.50 L 344.00 418.50 L 323.00 427.50 L 302.00 431.50 Z M 264.50 311.00 L 286.00 289.50 L 314.00 268.50 L 349.00 249.50 L 369.00 241.50 L 390.00 235.50 L 390.50 234.00 L 264.00 107.50 L 264.50 311.00 Z M 176.50 272.00 L 192.00 261.50 L 208.00 253.50 L 228.00 246.50 L 247.00 242.50 L 247.50 203.00 L 176.00 131.50 L 176.50 272.00 Z M 88.50 274.00 L 96.00 268.50 L 117.00 258.50 L 146.00 250.50 L 159.00 249.50 L 159.50 243.00 L 88.00 171.50 L 88.50 274.00 Z M 247.50 327.00 L 247.00 258.50 L 229.00 262.50 L 202.00 273.50 L 190.00 281.50 L 178.50 293.00 L 183.50 300.00 L 184.00 321.50 L 229.00 327.50 L 247.50 327.00 Z M 159.50 292.00 L 159.00 265.50 L 147.00 266.50 L 122.00 273.50 L 107.00 280.50 L 96.50 288.00 L 120.00 290.50 L 159.50 292.00 Z M 301.50 415.00 L 309.00 414.50 L 328.00 408.50 L 342.00 400.50 L 354.50 390.00 L 367.50 373.00 L 382.50 348.00 L 417.50 296.00 L 417.00 294.50 L 375.00 303.50 L 348.00 306.50 L 315.00 335.50 L 258.00 343.50 L 216.00 342.50 L 173.00 335.50 L 167.50 330.00 L 167.50 309.00 L 163.00 307.50 L 132.00 306.50 L 94.00 302.50 L 76.00 302.50 L 29.00 296.50 L 23.50 297.00 L 23.50 351.00 L 50.00 351.50 L 54.50 355.00 L 70.00 415.50 L 301.50 415.00 Z" fill="white" fill-rule="evenodd" stroke="none"/>
</svg>
